<!DOCTYPE svg PUBLIC "-//W3C//DTD SVG 1.1//EN" "http://www.w3.org/Graphics/SVG/1.1/DTD/svg11.dtd">
<!-- Uploaded to: SVG Repo, www.svgrepo.com, Transformed by: SVG Repo Mixer Tools -->
<svg width="800px" height="800px" viewBox="0 0 32 32" xmlns="http://www.w3.org/2000/svg" fill="#FCA004" stroke="#FCA004">
<g id="SVGRepo_bgCarrier" stroke-width="0"/>
<g id="SVGRepo_tracerCarrier" stroke-linecap="round" stroke-linejoin="round"/>
<g id="SVGRepo_iconCarrier"> <defs> <style>.cls-1{fill:none;stroke:#FCA004;stroke-linecap:round;stroke-linejoin:round;stroke-width:2px;}</style> </defs> <title/> <g data-name="18-paper" id="_18-paper"> <path class="cls-1" d="M27,5V3a2,2,0,0,0-2-2H7A2,2,0,0,0,5,3V29a2,2,0,0,0,2,2H25a2,2,0,0,0,2-2V19"/> <line class="cls-1" x1="14" x2="18" y1="27" y2="27"/> <polygon class="cls-1" points="22.75 19.25 19 20 19.75 16.25 28 8 31 11 22.75 19.25"/> <line class="cls-1" x1="16" x2="9" y1="20" y2="20"/> <line class="cls-1" x1="9" x2="17" y1="16" y2="16"/> <line class="cls-1" x1="9" x2="19" y1="12" y2="12"/> </g> </g>
</svg>